<svg id="コンポーネント_12" data-name="コンポーネント 12" xmlns="http://www.w3.org/2000/svg" width="56.826" height="56.826" viewBox="0 0 56.826 56.826">
  <path id="パス_59" data-name="パス 59" d="M28.413,0A28.413,28.413,0,1,1,0,28.413,28.413,28.413,0,0,1,28.413,0Z" fill="#fd5785"/>
  <g id="グループ_2975" data-name="グループ 2975" transform="translate(11.429 13.635)">
    <path id="合体_6" data-name="合体 6" d="M16.819,30.3h-.024a3.384,3.384,0,0,1-2.081-.778C13.62,28.751-.016,19.276,0,9.854.018.465,10.926-3.969,16.819,4.515c5.893-8.484,16.8-4.051,16.817,5.339.018,9.422-13.619,18.9-14.712,19.665a3.387,3.387,0,0,1-2.081.778h-.024Z" transform="translate(0 0)" fill="#fff" opacity="0.9"/>
  </g>
</svg>
